PathFileType	4	(X/Y/Z)	C:/Users/beibeiliu/ov580/test_trc/capture2\sequence.25_training_dense_left.trc
DataRate	CameraRate	NumFrames	NumMarkers	Units	OrigDataRate	OrigDataStartFrame	OrigNumFrames
120	120	22	19	mm	120	215	343
Frame#	Time	ThumbCMC			ThumbMCP			ThumbIP			ThumbTip			IndexMCP			IndexPIP			IndexTip			MiddleMCP			MiddlePIP			MiddleTip			RingMCP			RingPIP			RingTip			PinkyMCP			PinkyPIP			PinkyTip			BackHand1			BackHand2			BackHand3	
		X0	Y0	Z0	X1	Y1	Z1	X2	Y2	Z2	X3	Y3	Z3	X4	Y4	Z4	X5	Y5	Z5	X6	Y6	Z6	X7	Y7	Z7	X8	Y8	Z8	X9	Y9	Z9	X10	Y10	Z10	X11	Y11	Z11	X12	Y12	Z12	X13	Y13	Z13	X14	Y14	Z14	X15	Y15	Z15	X16	Y16	Z16	X17	Y17	Z17	X18	Y18	Z18	
214	1.78333	-131.508	134.552	15.6463	-118.058	150.75	-7.65221	-114.407	159.767	-32.5567	-110.592	162.454	-53.5689	-120.906	142.001	-55.6659	-93.9864	134.303	-48.6348	-107.221	126.015	-18.0415	-121.219	120.281	-58.3923	-90.7422	120.169	-43.2434	-107.24	116.099	-11.6729	-118.109	98.9144	-58.7524	-91.8504	100.186	-42.9246	-110.459	101.516	-12.4219	-132.92	77.6107	-61.607	-115.379	77.46	-82.3236	-97.4567	77.0754	-102.114	-160.837	90.3515	-21.3215	-160.148	83.819	10.2775	-160.761	115.885	1.44836	
215	1.79167	-126.51	132.7	13.2528	-112.091	148.207	-6.28468	-107.651	158.338	-31.4559	-104.694	161.698	-51.611	-122.874	140.126	-52.9224	-92.8194	131.5	-51.985	-102.167	121.207	-21.8687	-118.972	118.154	-59.8267	-92.3364	114.867	-48.52	-107.103	112.43	-11.1624	-117.724	102.211	-60.7374	-94.6184	95.0099	-43.7906	-107.802	100.894	-13.4926	-139.081	78.3071	-64.6406	-126.479	78.2241	-81.8552	-111.938	76.7396	-105.62	-161.494	92.6707	-20.1079	-163.86	88.8799	12.7404	-158.55	121.396	0.505225	
216	1.8	-123.332	130.502	17.4543	-108.104	145.692	-8.40457	-102.635	156.794	-29.6793	-101.863	159.791	-54.4369	-120.104	141.723	-53.9692	-90.6825	127.942	-50.5371	-99.3383	119.492	-21.3109	-121.751	122.661	-58.3182	-90.8902	112.331	-47.069	-107.053	107.686	-13.4502	-124.642	101.996	-58.9919	-97.3538	93.7526	-44.2202	-109.94	99.7982	-13.1656	-144.603	84.4303	-64.444	-133.42	80.3303	-82.0153	-122.026	79.0241	-106.642	-164.047	100.802	-19.0567	-164.843	89.2369	9.38397	-155.9	122.668	2.37571	
217	1.80833	-119.921	134.751	13.9625	-104.753	145.031	-8.32176	-98.6182	153.878	-28.5415	-98.559	156.784	-53.3614	-116.804	142.671	-54.658	-91.576	128.222	-55.7932	-96.6292	119.543	-22.3672	-118.378	121.039	-61.5434	-92.5775	110.348	-49.6741	-104.95	106.839	-14.3796	-122.878	102.283	-60.6914	-99.8926	91.1212	-46.532	-111.709	99.9199	-13.1661	-147.674	85.4106	-62.114	-138.135	78.3744	-82.8222	-126.153	78.123	-107.949	-165.42	104.255	-18.9337	-164.997	92.5854	11.4174	-154.664	124.797	2.77409	
218	1.81667	-117.902	131.895	13.4206	-101.391	141.261	-6.02299	-96.7742	152.316	-30.8167	-93.5976	157.437	-54.0482	-116.841	142.086	-54.1485	-91.5626	126.307	-57.4592	-94.9001	116.107	-24.1337	-120.531	120.041	-62.6272	-95.7448	106.042	-52.8959	-106.883	105.396	-15.6619	-127.875	102.263	-60.8359	-100.529	92.4726	-45.9639	-111.75	94.7083	-16.5329	-151.873	85.9777	-61.9335	-139.869	85.3981	-84.9399	-133.053	81.0732	-109.382	-165.88	106.688	-18.2344	-168.621	95.5829	9.83179	-154.8	126.557	5.63266	
219	1.825	-115.823	127.746	13.6355	-97.3673	138.048	-6.22309	-92.8428	150.449	-33.6694	-89.1845	153.123	-51.9985	-114.898	142.151	-54.2453	-90.6185	122.613	-59.6946	-94.803	112.376	-24.5468	-121.569	120.663	-60.9316	-97.0545	101.627	-55.0225	-107.506	100.696	-18.326	-124.923	101.757	-63.1661	-103.39	91.3541	-49.6966	-114.461	93.7638	-15.6113	-151.651	91.929	-63.8682	-144.633	83.8194	-83.715	-137.001	83.281	-106.713	-164.847	107.699	-19.7794	-168.631	100.408	10.0474	-151.758	127.482	2.34452	
220	1.83333	-112.579	125.448	15.1571	-94.9106	133.28	-6.44132	-85.7623	145.377	-29.5237	-85.8182	149.814	-53.3298	-112.55	139.276	-54.6037	-87.8986	119.507	-58.4709	-89.7575	106.493	-29.3139	-120.022	122.497	-59.7391	-94.7409	101.611	-54.0294	-107.046	101.62	-17.0796	-126.091	101.661	-64.5976	-106.612	85.2228	-50.4154	-114.959	90.5348	-18.7482	-155.02	91.6161	-69.0093	-147.566	87.83	-84.9114	-138.678	86.7966	-110.244	-166.048	108.136	-21.8917	-165.751	102.386	8.11359	-147.971	130.01	2.96075	
221	1.84167	-109.252	121.553	16.3837	-91.1151	128.328	-7.77876	-82.8574	139.845	-32.1072	-79.2325	146.147	-52.8628	-110.826	136.843	-53.5024	-88.571	116.676	-61.0046	-90.7117	101.081	-30.0287	-117.542	121.782	-60.9737	-97.641	95.4954	-54.3399	-109.476	97.286	-17.4253	-126.872	104.588	-62.7039	-108.001	83.9271	-50.1376	-119.029	88.3322	-17.1794	-154.511	97.9073	-67.5564	-149.046	90.4422	-86.0548	-143.665	86.3325	-111.258	-163.265	112.787	-20.6595	-170.382	100.696	12.6481	-144.243	131.079	4.30577	
222	1.85	-108.091	115.708	15.5081	-88.7458	121.884	-8.44253	-79.3487	134.151	-31.6906	-75.5259	140.664	-54.611	-106.264	136.807	-50.9252	-85.8114	114.534	-61.0138	-88.4369	95.4253	-32.7423	-117.826	120.819	-58.8304	-97.1781	93.1257	-53.6814	-110.342	93.2167	-18.1863	-125.81	104.534	-63.168	-110.062	81.3887	-52.059	-120.229	83.87	-19.1543	-156.441	99.2805	-62.4747	-149.69	92.712	-88.3488	-145.948	90.0285	-112.595	-164.002	114.164	-19.862	-166.414	103.636	11.6846	-143.63	125.642	7.50271	
223	1.85833	-104.904	111.403	16.4357	-87.1463	111.133	-4.3798	-79.3366	122.897	-28.2601	-69.6251	132.433	-49.9985	-101.806	132.846	-51.011	-87.3276	107.739	-61.8457	-93.2216	88.8189	-32.8146	-116.914	115.526	-60.0305	-97.9872	90.386	-56.2335	-108.102	89.1456	-17.7076	-126.661	105.237	-61.6756	-111.837	79.1755	-50.1778	-119.173	82.4895	-20.6262	-154.353	103.93	-66.7504	-147.705	98.331	-86.1802	-146.997	94.6391	-111.369	-160.219	119.427	-16.6404	-169.657	106.18	9.58076	-139.898	124.366	7.27504	
224	1.86667	-104.535	105.076	14.6999	-88.225	106.726	-9.14647	-71.2918	115.041	-28.3041	-65.5738	122.972	-49.7593	-97.5656	128.036	-51.4984	-86.0343	99.879	-60.8105	-92.52	84.5063	-31.625	-113.924	112.31	-61.1537	-101.806	82.6487	-55.5616	-107.668	84.6235	-18.7662	-129.821	103.555	-60.384	-115.315	74.0432	-51.7839	-120.316	79.4367	-20.3252	-157.499	104.115	-66.5012	-152.625	98.0259	-85.7562	-148.699	98.0249	-111.626	-160.785	117.887	-15.6212	-167.185	107.849	13.4637	-133.933	125.941	8.02475	
225	1.875	-101.217	99.0552	16.0809	-82.1625	98.568	-5.46524	-74.5375	104.984	-26.5423	-63.9994	115.715	-52.1706	-94.4941	121.293	-53.5694	-83.2265	93.6464	-59.5764	-97.4063	77.596	-36.1899	-111.985	113.041	-57.5104	-104.538	79.8434	-58.5686	-109.664	78.0606	-22.4776	-127.6	99.001	-63.9171	-114.064	74.1537	-52.5823	-122.652	75.2803	-21.4532	-153.055	106.701	-65.3394	-150.583	99.9683	-85.6749	-150.646	99.6015	-111.584	-157.131	119.871	-13.8377	-163.566	105.629	15.2035	-130.342	121.42	9.42532	
226	1.88333	-99.8306	93.2007	14.888	-85.7948	90.6364	-8.67882	-68.1319	99.1485	-30.9685	-63.2671	107.341	-53.5267	-91.9497	116.201	-50.3163	-84.8681	87.3615	-61.392	-96.709	71.232	-35.925	-109.128	107.502	-58.9156	-103.997	74.2365	-56.8432	-110.771	73.9794	-21.5407	-123.813	98.4314	-61.9346	-119.784	69.9344	-53.7605	-123.325	74.852	-19.5739	-154.598	107.31	-66.6208	-152.008	100.343	-86.7409	-147.417	101.567	-108.059	-154.997	119.867	-17.2347	-159.103	108.788	13.7775	-129.363	117.901	10.6868	
227	1.89167	-103.42	85.2562	14.7353	-86.2874	83.3629	-8.15895	-72.6452	89.2755	-30.8966	-64.8186	96.9811	-53.5356	-90.2734	109.77	-49.7799	-83.9987	81.802	-63.0963	-98.2921	65.5463	-34.2595	-106.456	102.786	-58.8079	-103.868	68.9274	-57.7136	-112.211	66.9342	-22.0535	-126.471	94.2909	-64.8374	-120.102	65.8305	-53.6796	-126.703	70.7741	-19.6161	-151.756	108.072	-61.9423	-151.781	102.177	-82.8654	-152.107	102.078	-108.116	-147.069	121.951	-15.2149	-158.667	107.423	13.01	-121.621	117.17	10.0933	
228	1.9	-102.327	79.5382	14.9622	-87.1761	73.4987	-7.05271	-73.471	78.2699	-30.881	-60.5992	84.5842	-53.4586	-90.3403	99.7549	-54.335	-88.7103	72.6264	-63.9198	-100.697	57.0761	-33.539	-107.61	96.1073	-60.7157	-109.397	63.9383	-59.4183	-117.372	61.2052	-25.7066	-130.476	93.5271	-62.241	-123.298	62.2766	-54.8536	-127.222	63.0759	-24.0412	-153.612	106.046	-62.4692	-151.121	100.589	-88.0568	-146.15	98.1721	-109.852	-147.381	118.486	-14.9292	-155	108.281	14.3395	-120.074	110.693	11.2615	
229	1.90833	-103.907	73.6194	12.7091	-88.119	64.3615	-8.17766	-75.231	68.0015	-32.452	-64.1344	74.3695	-58.0601	-87.1668	91.6032	-52.8485	-90.9672	62.53	-64.3666	-105.69	49.8384	-37.7475	-107.94	91.2043	-58.9846	-111.719	55.457	-58.9883	-121.835	54.7921	-26.2631	-129.469	86.9027	-64.5363	-131.5	56.732	-55.1272	-133.33	61.628	-20.2789	-151.435	103.155	-66.4866	-151.644	97.1259	-82.3295	-151.579	93.8938	-110	-142.765	113.994	-14.2633	-155.255	107.012	14.1639	-119.776	107.59	5.75491	
230	1.91667	-103.539	65.8769	12.6686	-90.4001	58.0065	-13.4473	-77.882	57.2979	-35.763	-69.7175	61.1062	-59.976	-90.4424	81.7253	-54.5779	-98.732	50.9399	-64.4778	-113.968	42.8716	-35.0689	-114.749	82.7208	-62.5906	-117.797	48.4203	-60.4961	-122.947	49.6519	-21.9645	-128.382	79.6574	-62.5196	-137.889	51.2219	-56.6324	-133.779	53.0416	-22.4711	-153.614	99.0699	-63.6967	-151.837	89.89	-86.9529	-153.282	83.7853	-110.965	-139.788	112.637	-17.2387	-146.426	103.951	12.1906	-116.608	101.912	6.12302	
231	1.925	-105.111	57.9193	9.06049	-90.1038	44.6148	-14.1412	-82.0112	44.078	-38.4542	-74.3419	43.0403	-60.1661	-93.2675	65.174	-57.8524	-104.044	38.095	-64.766	-121.808	36.0545	-31.3381	-113.828	66.8806	-63.4172	-124.973	36.8174	-56.3865	-128.515	41.7437	-20.1787	-134.285	68.5638	-63.6011	-144.962	42.4621	-52.9026	-139.499	48.5303	-20.0583	-152.769	90.0797	-60.8523	-156.012	80.2495	-83.2458	-159.897	75.3655	-105.61	-137.415	104.766	-17.017	-145.742	100.116	12.5554	-114.416	92.4848	4.14504	
232	1.93333	-105.358	50.8361	9.31307	-97.9145	38.76	-14.9648	-85.6544	33.7385	-37.7935	-80.9917	32.3046	-58.8007	-98.044	54.9635	-60.2054	-108.8	27.385	-63.481	-122.692	25.5895	-33.2023	-120.944	58.5614	-65.1635	-129.998	28.7624	-56.1813	-133.856	33.6677	-22.4633	-141.121	60.4566	-64.5778	-145.366	35.4332	-50.8785	-141.611	44.7483	-17.8091	-154.158	83.1575	-64.9087	-161.861	72.6509	-84.0319	-164.228	63.9226	-108.539	-137.082	97.3027	-15.2126	-145.376	95.5346	12.4142	-113.693	85.9377	5.987	
233	1.94167	-108.405	45.8836	12.9136	-99.5675	32.3484	-11.8046	-87.4521	25.3616	-35.4112	-82.4428	27.0287	-64.2074	-100.278	48.8084	-58.1983	-114.651	20.0578	-62.6457	-127.764	22.3813	-30.9047	-121.769	53.6254	-62.1853	-134.394	25.0708	-57.9299	-135.149	33.0959	-18.58	-138.907	58.1477	-61.115	-151.949	30.6981	-49.9018	-141.156	41.222	-15.8488	-156.63	77.9042	-62.8438	-162.014	65.1732	-84.7087	-169.341	56.9033	-103.755	-140.792	95.5675	-18.8557	-145.101	93.2702	11.9323	-113.251	82.2644	-0.46582	
234	1.95	-105.946	42.3731	10.1427	-99.7087	25.8583	-9.91616	-88.234	21.0791	-36.4567	-87.9178	20.4473	-59.4891	-102.124	40.7246	-60.2249	-117.763	13.5704	-59.3382	-126.286	16.0305	-28.1485	-123.782	44.218	-64.1505	-136.124	17.3119	-51.5832	-135.422	27.5113	-18.6253	-143.062	46.8859	-63.2424	-150.548	24.7685	-47.8009	-144.309	37.8376	-15.2919	-156.853	70.9556	-61.9731	-165.321	60.305	-82.128	-169.794	50.1786	-104.69	-137.785	89.26	-20.2146	-141.434	89.2129	11.0055	-112.804	77.9958	1.02271	
235	1.95833	-107.138	38.5209	15.2033	-96.8477	21.8473	-9.4545	-87.454	13.765	-33.2622	-87.4186	14.9454	-59.6976	-104.531	36.3627	-59.7892	-116.19	9.16318	-60.0268	-125.198	13.1029	-24.2796	-126.91	37.9766	-63.7762	-134.606	10.9612	-49.1066	-135.311	23.8756	-16.7797	-144.651	41.7171	-61.7982	-150.303	18.4801	-43.8193	-145.527	31.2439	-14.5555	-160.824	65.5852	-63.6289	-165.012	51.4672	-82.5541	-169.515	42.2317	-100.801	-140.209	83.7425	-19.7187	-146.42	86.0704	11.6134	-109.064	73.2232	-0.633639	
